<?xml version="1.0" encoding="UTF-8"?>
<svg width="100%" height="100%" viewBox="0 0 96 96" version="1.1" xmlns="http://www.w3.org/2000/svg">
    <g fill="#A50064">
        <path d="M48,0 C74.512,0 96,21.488 96,48 C96,74.512 74.512,96 48,96 C21.488,96 0,74.512 0,48 C0,21.488 21.488,0 48,0 Z M48,4 C23.6938667,4 4,23.6938667 4,48 C4,72.3061333 23.6938667,92 48,92 C72.3061333,92 92,72.3061333 92,48 C92,23.6938667 72.3061333,4 48,4 Z M65.7333333,42.0906667 L65.7333333,62.4 C65.7333333,63.28 65.0133333,64 64.1333333,64 L57.6,64 C56.72,64 56,63.28 56,62.4 L56,43.7333333 C56,40.4373333 53.296,37.7333333 50,37.7333333 C46.704,37.7333333 44,40.4373333 44,43.7333333 L44,62.4 C44,63.28 43.28,64 42.4,64 L35.8666667,64 C34.9866667,64 34.2666667,63.28 34.2666667,62.4 L34.2666667,43.7333333 C34.2666667,34.992 41.2586667,28 50,28 C54.9653333,28 59.3826667,30.2826667 62.1333333,33.8666667 C64.4373333,35.5733333 65.7333333,38.6666667 65.7333333,42.0906667 Z"/>
    </g>
</svg>
