<?xml version="1.0" standalone="no"?>
<!DOCTYPE svg PUBLIC "-//W3C//DTD SVG 20010904//EN"
 "http://www.w3.org/TR/2001/REC-SVG-20010904/DTD/svg10.dtd">
<svg version="1.0" xmlns="http://www.w3.org/2000/svg"
 width="1000.000000pt" height="1000.000000pt" viewBox="0 0 1000.000000 1000.000000"
 preserveAspectRatio="xMidYMid meet">

<g transform="translate(0.000000,1000.000000) scale(0.100000,-0.100000)"
fill="#000000" stroke="none">
<path d="M2040 5878 c0 -43 16 -53 87 -58 l68 -5 1 -63 c1 -35 7 -69 13 -75 9
-9 166 -13 591 -15 l580 -3 15 -23 c10 -15 14 -34 10 -52 -18 -80 -220 -664
-241 -696 -48 -74 -33 -72 -559 -78 -432 -5 -473 -6 -498 -23 -48 -31 -69 -75
-64 -135 4 -56 24 -91 71 -126 26 -20 44 -21 373 -26 l345 -5 24 -28 c13 -15
24 -35 24 -43 0 -25 29 -74 44 -74 8 0 24 8 37 18 21 18 22 21 9 67 -16 59
-61 112 -115 136 -36 17 -72 19 -362 19 -310 0 -324 1 -343 20 -24 24 -26 72
-3 91 13 11 107 15 482 19 429 5 469 6 501 24 44 23 107 83 126 118 17 33 231
678 240 723 9 48 -21 108 -68 142 l-41 28 -553 3 -553 3 -3 67 -3 67 -117 3
c-117 3 -118 2 -118 -20z"/>
<path d="M7620 5545 c-72 -33 -108 -92 -118 -193 l-7 -64 -42 -17 c-52 -20
-68 -35 -60 -55 5 -12 20 -16 57 -16 l50 0 2 -277 3 -278 48 -3 47 -3 0 280
c0 218 3 281 13 282 6 0 41 1 77 2 l65 2 3 37 c3 36 3 37 -40 42 -24 2 -59 4
-78 3 l-35 -2 2 57 c2 65 23 114 54 123 11 4 48 5 82 3 60 -3 61 -3 74 29 12
30 11 33 -8 43 -36 20 -150 22 -189 5z"/>
<path d="M4382 5098 l3 -453 48 -3 47 -3 0 168 c0 183 12 282 38 327 37 64
149 94 227 62 66 -28 69 -42 75 -311 l5 -240 48 -3 47 -3 0 234 c0 270 -8 316
-65 366 -69 60 -200 71 -286 24 -28 -15 -54 -33 -56 -40 -3 -7 -11 -13 -19
-13 -11 0 -14 31 -14 170 l0 170 -50 0 -50 0 2 -452z"/>
<path d="M7176 5504 c-19 -18 -21 -75 -4 -92 7 -7 26 -12 43 -12 39 0 55 16
55 55 0 55 -58 85 -94 49z"/>
<path d="M3887 5500 c-58 -10 -115 -46 -153 -96 -21 -27 -29 -50 -32 -95 -9
-119 52 -200 196 -260 122 -50 167 -76 197 -111 50 -59 22 -157 -55 -194 -66
-33 -201 -27 -312 12 -42 15 -47 9 -40 -49 4 -35 7 -38 61 -54 82 -24 241 -23
309 2 108 40 162 111 162 215 0 66 -21 119 -62 157 -13 12 -64 40 -113 63
-207 93 -230 111 -241 181 -18 111 101 174 256 134 36 -9 75 -19 87 -22 18 -4
25 2 38 33 9 21 12 41 7 46 -29 29 -221 53 -305 38z"/>
<path d="M2813 5484 c-77 -17 -121 -38 -150 -72 -20 -23 -23 -24 -29 -8 -4 11
1 28 15 47 12 16 17 29 12 29 -16 0 -61 -60 -61 -81 0 -34 71 -97 164 -147 49
-26 98 -59 109 -73 18 -25 18 -28 2 -53 -11 -17 -13 -26 -6 -26 7 0 9 -5 6
-11 -4 -6 -14 -8 -22 -5 -8 3 -12 2 -9 -2 9 -16 -227 -104 -316 -118 -21 -4
-41 -11 -44 -15 -8 -13 43 -11 154 6 241 36 402 115 402 197 0 33 -59 84 -158
136 -146 76 -154 94 -55 133 50 19 76 22 189 22 73 -1 143 -4 155 -8 22 -7 23
-6 8 10 -23 24 -161 55 -239 54 -36 -1 -93 -7 -127 -15z"/>
<path d="M1706 5424 c-18 -18 -20 -32 -6 -54 7 -12 41 -16 179 -18 182 -4 211
2 211 41 0 44 -14 47 -196 47 -144 0 -175 -3 -188 -16z"/>
<path d="M5321 5290 c-92 -19 -158 -76 -203 -176 -31 -70 -31 -227 0 -297 32
-72 74 -119 134 -152 46 -26 63 -30 133 -29 67 0 88 4 130 26 63 33 108 79
137 143 20 43 23 66 23 160 0 94 -3 117 -24 162 -54 121 -195 190 -330 163z
m136 -91 c38 -14 71 -46 96 -94 17 -32 21 -58 22 -130 0 -107 -19 -165 -70
-215 -33 -32 -42 -35 -108 -38 -62 -3 -77 -1 -107 20 -21 13 -46 45 -62 77
-24 47 -28 67 -28 139 0 99 13 149 49 192 43 51 142 74 208 49z"/>
<path d="M6087 5290 c-16 -5 -53 -27 -82 -49 -30 -23 -57 -41 -60 -41 -3 0 -5
11 -5 24 0 45 -10 56 -51 56 l-39 0 0 -461 0 -460 53 3 52 3 -3 150 c-2 83 -5
162 -8 178 -3 15 -2 27 1 27 4 0 34 -18 67 -39 170 -114 353 -25 398 194 16
78 6 202 -22 267 -48 112 -190 181 -301 148z m141 -106 c15 -11 40 -45 55 -75
27 -51 28 -60 25 -154 -5 -112 -23 -162 -78 -209 -27 -22 -41 -26 -93 -26 -79
0 -125 28 -158 97 -32 66 -33 225 -2 294 20 45 59 81 98 92 40 11 126 0 153
-19z"/>
<path d="M6713 5290 c-57 -12 -96 -34 -127 -70 -32 -39 -40 -69 -33 -123 8
-59 62 -104 189 -158 126 -54 158 -79 158 -124 0 -62 -60 -105 -146 -105 -28
0 -148 29 -186 45 -16 6 -18 1 -18 -38 l0 -45 53 -18 c35 -12 82 -19 143 -19
81 0 97 3 150 30 77 39 107 92 101 175 -4 48 -8 58 -45 90 -24 22 -76 50 -127
70 -161 62 -208 108 -171 166 10 13 28 29 42 34 37 14 143 11 189 -5 56 -20
70 -19 83 10 20 44 15 52 -45 68 -76 21 -158 28 -210 17z"/>
<path d="M7891 5282 c-15 -5 -15 -454 0 -505 6 -21 26 -56 46 -78 77 -86 248
-90 338 -9 33 30 46 28 60 -10 10 -31 16 -35 46 -35 l34 0 3 318 2 317 -50 0
-50 0 0 -192 c0 -106 -5 -209 -10 -229 -13 -45 -47 -96 -81 -121 -33 -25 -132
-27 -177 -4 -64 33 -67 45 -70 307 l-4 237 -38 4 c-21 2 -44 2 -49 0z"/>
<path d="M7162 4963 l3 -318 48 -3 47 -3 0 320 0 321 -50 0 -50 0 2 -317z"/>
<path d="M1536 5114 c-33 -32 -10 -79 36 -72 17 2 24 11 26 31 6 49 -30 73
-62 41z"/>
<path d="M1831 5121 c-50 -7 -73 -30 -55 -58 10 -16 36 -18 269 -21 271 -2
289 0 283 42 -6 40 -41 46 -253 44 -110 0 -220 -4 -244 -7z"/>
<path d="M2120 4383 c-66 -34 -97 -125 -66 -196 22 -52 59 -79 116 -85 61 -6
100 10 140 55 25 28 30 42 30 86 0 57 -23 105 -63 132 -39 25 -116 29 -157 8z
m120 -88 c18 -22 15 -73 -6 -96 -43 -48 -110 -7 -105 63 3 43 83 67 111 33z"/>
<path d="M2724 4362 c-24 -15 -54 -78 -54 -112 0 -152 206 -207 281 -75 31 56
32 82 3 102 -32 20 -54 10 -65 -31 -17 -61 -62 -82 -107 -50 -26 18 -29 68 -7
98 19 25 19 41 -1 60 -17 17 -33 20 -50 8z"/>
</g>
</svg>
