<?xml version="1.0" standalone="no"?>
<!DOCTYPE svg PUBLIC "-//W3C//DTD SVG 20010904//EN"
 "http://www.w3.org/TR/2001/REC-SVG-20010904/DTD/svg10.dtd">
<svg version="1.0" xmlns="http://www.w3.org/2000/svg"
 width="1000.000000pt" height="1000.000000pt" viewBox="0 0 1000.000000 1000.000000"
 preserveAspectRatio="xMidYMid meet">

<g transform="translate(0.000000,1000.000000) scale(0.100000,-0.100000)"
fill="#000000" stroke="none">
<path d="M3763 7434 c-19 -14 -37 -41 -44 -64 -10 -32 -9 -44 7 -76 36 -72 55
-79 236 -81 88 -1 162 -3 164 -5 2 -2 6 -79 10 -171 l7 -167 32 -38 33 -37
1548 -5 c1522 -5 1550 -5 1582 -25 36 -22 82 -103 82 -145 0 -36 -583 -1787
-622 -1870 -35 -73 -124 -167 -190 -201 -113 -58 -15 -54 -1343 -59 l-1220 -5
-70 -29 c-87 -37 -178 -124 -221 -211 -27 -56 -29 -68 -29 -175 0 -110 1 -118
33 -182 55 -113 147 -190 267 -224 54 -16 145 -18 930 -23 970 -7 893 -1 966
-78 49 -51 70 -94 86 -178 16 -85 37 -116 90 -133 35 -11 46 -11 77 2 75 31
93 110 55 246 -46 170 -165 302 -327 363 -57 21 -63 22 -937 27 -982 6 -914 0
-971 76 -21 27 -29 50 -31 92 -5 67 13 103 73 148 l37 29 1211 5 c1312 6 1223
2 1366 60 154 61 279 174 352 316 33 64 128 336 341 979 163 490 300 908 306
930 53 199 -74 422 -284 499 -21 8 -463 12 -1500 16 l-1470 5 -6 165 c-3 91
-6 166 -7 167 -1 2 -18 21 -38 43 l-36 40 -257 0 -256 0 -32 -26z"/>
<path d="M5915 6333 c-11 -2 -56 -11 -100 -19 -179 -33 -349 -106 -403 -173
-17 -21 -38 -55 -48 -77 -16 -38 -17 -38 -24 -14 -13 40 -11 98 4 133 12 29
66 84 127 129 l24 18 -28 -10 c-38 -14 -63 -27 -125 -68 -128 -84 -126 -216 5
-353 80 -84 153 -134 325 -222 233 -120 308 -172 334 -234 27 -63 -23 -131
-149 -205 -81 -47 -354 -159 -494 -203 -51 -16 -91 -30 -89 -32 2 -3 75 16
162 42 298 87 545 202 620 289 40 47 62 45 36 -4 -42 -79 -188 -160 -457 -255
-109 -39 -357 -116 -465 -145 -19 -5 -66 -18 -105 -29 -67 -18 -212 -52 -283
-66 -67 -14 -21 -16 109 -5 329 26 359 29 584 65 368 59 643 155 801 278 101
79 144 147 144 228 0 120 -124 222 -482 399 -229 113 -289 173 -241 238 47 63
144 107 317 142 79 16 137 20 300 20 200 -1 462 -20 524 -39 63 -19 33 10 -50
48 -192 88 -417 132 -676 130 -98 -1 -186 -3 -197 -6z"/>
<path d="M2845 6171 c-43 -26 -65 -63 -65 -110 0 -33 7 -48 39 -81 l38 -41
473 3 472 3 34 37 c39 43 46 97 18 149 -29 58 -39 59 -531 59 -419 0 -450 -1
-478 -19z"/>
<path d="M2359 5301 c-35 -35 -39 -44 -39 -89 0 -43 5 -55 31 -81 38 -38 67
-46 113 -31 53 17 86 62 86 115 0 37 -6 50 -38 85 -32 33 -46 40 -77 40 -30 0
-45 -7 -76 -39z"/>
<path d="M3060 5323 c-44 -23 -75 -81 -66 -126 3 -18 19 -48 35 -67 l29 -35
692 0 692 0 35 39 c33 35 35 42 31 88 -4 39 -12 57 -37 81 l-31 32 -673 3
c-625 2 -674 1 -707 -15z"/>
<path d="M4008 3361 c-124 -40 -221 -134 -268 -259 -18 -47 -21 -73 -18 -152
3 -81 8 -105 35 -163 38 -80 116 -162 188 -197 46 -23 61 -25 190 -25 128 0
144 2 185 24 70 37 153 123 191 198 32 64 34 72 34 172 0 98 -2 111 -31 172
-94 198 -305 294 -506 230z m169 -231 c38 0 118 -84 127 -132 19 -106 -65
-208 -171 -208 -158 0 -234 210 -112 303 36 27 95 48 117 41 8 -2 25 -4 39 -4z"/>
<path d="M5572 3283 c-114 -63 -182 -275 -137 -429 32 -111 105 -205 197 -255
l63 -34 140 0 140 0 63 34 c76 41 135 104 173 186 71 151 55 269 -40 295 -47
13 -104 -3 -129 -35 -11 -14 -25 -55 -32 -91 -10 -52 -21 -76 -48 -105 -87
-97 -240 -67 -288 56 -22 58 -14 100 30 173 48 77 49 128 4 177 -41 44 -89 54
-136 28z"/>
</g>
</svg>
